<?xml version="1.0" encoding="UTF-8"?>
<svg id="Capa_1" xmlns="http://www.w3.org/2000/svg" version="1.1" viewBox="0 0 492.44 490.04">
  <!-- Generator: Adobe Illustrator 30.2.0, SVG Export Plug-In . SVG Version: 2.1.1 Build 12)  -->
  <defs>
    <style>
      .st0 {
        fill: #00552b;
      }

      .st1 {
        fill: #fff;
      }
    </style>
  </defs>
  <path class="st0" d="M245.02,0h2.4c135.32,0,245.02,109.7,245.02,245.02h0c0,135.32-109.7,245.02-245.02,245.02h-2.4C109.7,490.04,0,380.34,0,245.02h0C0,109.7,109.7,0,245.02,0Z"/>
  <g>
    <polygon class="st1" points="246.07 147.82 346.68 322.36 283.44 322.36 283.44 352 395.84 352 246.07 86.38 96.6 352 208.27 352 208.27 322.72 145.75 322.72 246.07 147.82"/>
    <circle class="st1" cx="246.22" cy="219.19" r="19.09" transform="translate(-9.58 427.12) rotate(-80.78)"/>
    <rect class="st1" x="230.93" y="252.13" width="30.6" height="99.87"/>
  </g>
</svg>